<?xml version="1.0" standalone="no"?>
<!DOCTYPE svg PUBLIC "-//W3C//DTD SVG 20010904//EN"
 "http://www.w3.org/TR/2001/REC-SVG-20010904/DTD/svg10.dtd">
<svg version="1.0" xmlns="http://www.w3.org/2000/svg"
 width="500.000000pt" height="500.000000pt" viewBox="0 0 500.000000 500.000000"
 preserveAspectRatio="xMidYMid meet">
<metadata>
Created by potrace 1.14, written by Peter Selinger 2001-2017
</metadata>
<g transform="translate(0.000000,500.000000) scale(0.100000,-0.100000)"
fill="#000000" stroke="none">
<path d="M2455 4280 c-3 -4 -17 -7 -33 -5 -24 2 -66 -37 -352 -324 l-326 -326
1 -97 1 -98 -35 -1 c-20 0 -70 -1 -111 -1 -87 0 -94 -3 -80 -28 8 -15 188
-234 420 -510 137 -164 159 -190 252 -312 28 -38 56 -68 63 -68 6 0 45 41 86
91 41 51 79 97 84 103 6 6 35 43 65 81 30 39 60 75 65 80 6 6 24 27 41 48 53
69 87 112 247 311 115 142 156 200 149 209 -7 8 -46 12 -126 11 -127 -2 -161
9 -140 43 10 17 37 18 406 21 l395 2 71 -72 c40 -40 73 -74 73 -78 1 -3 2 -72
3 -155 l1 -150 -105 -106 -106 -105 -334 1 c-249 1 -335 4 -338 13 -2 7 -8 10
-13 6 -5 -3 -9 1 -10 8 0 7 -14 24 -31 37 l-31 25 -29 -35 c-16 -19 -40 -45
-52 -59 -62 -69 -218 -262 -257 -318 -24 -35 -58 -83 -75 -108 l-31 -44 -29
34 c-16 18 -39 46 -51 62 -23 30 -354 444 -402 502 l-27 33 1 -113 c1 -116 13
-158 44 -158 8 0 12 -3 9 -6 -6 -6 61 -74 72 -74 4 0 12 -10 19 -23 6 -12 25
-31 42 -42 16 -11 32 -28 35 -37 3 -9 14 -20 25 -23 10 -4 19 -13 19 -21 0 -8
6 -14 14 -14 20 0 14 -30 -9 -46 -10 -8 -15 -14 -10 -14 5 0 -7 -11 -26 -25
-19 -14 -34 -29 -34 -33 0 -3 -18 -22 -39 -42 -22 -19 -54 -50 -71 -67 -18
-18 -37 -33 -42 -33 -14 0 -26 -26 -32 -65 -3 -19 0 -530 3 -549 2 -18 12 -20
94 -21 51 0 97 -6 103 -12 7 -7 10 -77 10 -203 -1 -164 2 -197 16 -221 10 -16
23 -29 29 -29 7 0 16 -9 19 -20 3 -11 11 -20 16 -20 12 0 49 -37 49 -50 0 -5
7 -10 16 -10 8 0 13 -4 9 -9 -3 -5 4 -12 15 -16 11 -3 20 -12 20 -20 0 -8 9
-17 20 -20 11 -3 20 -12 20 -18 0 -7 14 -21 30 -32 16 -11 30 -26 30 -34 0 -8
3 -12 6 -8 3 3 29 -17 56 -44 28 -28 60 -54 72 -58 11 -4 330 -7 707 -6 761 1
696 -5 771 69 21 20 38 39 38 41 0 3 2 5 5 5 9 -1 55 52 55 63 0 6 3 8 6 5 6
-7 74 61 74 75 0 4 3 6 8 4 4 -2 26 16 48 40 23 24 40 43 38 43 -3 0 12 15 32
32 61 54 94 89 94 100 0 6 3 9 6 6 6 -7 74 61 74 75 0 6 3 8 6 5 6 -7 49 32
49 45 0 4 5 11 10 15 6 4 10 16 10 27 0 11 3 30 7 43 5 13 3 32 -2 43 -8 13
-7 25 1 40 7 15 8 24 0 32 -6 6 -7 16 -1 28 6 10 6 20 1 23 -7 5 -7 36 3 91 2
11 -1 25 -5 31 -6 7 -5 22 0 37 6 16 7 29 1 32 -5 3 -6 15 -1 27 4 12 5 37 1
55 -5 18 -5 33 -1 33 8 0 6 58 -2 66 -3 3 -2 18 3 34 5 16 4 32 -2 38 -6 6 -6
12 0 16 7 4 7 17 2 35 -4 15 -4 34 0 41 9 14 2 49 -13 68 -5 6 -7 12 -3 12 7
0 -23 36 -91 105 -28 29 -53 51 -55 49 -2 -1 -12 10 -23 27 -11 16 -26 29 -33
29 -7 0 -10 5 -7 10 3 6 2 10 -3 10 -5 0 -12 9 -15 20 -3 11 -1 20 5 20 14 0
38 26 31 34 -4 3 -2 6 4 6 13 0 102 88 95 95 -3 3 0 5 7 5 14 0 100 89 102
105 1 5 2 212 3 458 2 418 1 449 -16 467 -10 10 -18 24 -18 29 0 5 -9 12 -19
16 -11 3 -23 15 -26 26 -4 10 -10 19 -15 19 -12 0 -80 70 -80 83 0 6 -2 8 -5
5 -7 -7 -132 115 -127 125 2 4 -1 7 -6 7 -6 0 -32 23 -59 51 -79 83 -128 129
-135 129 -5 0 -8 6 -8 14 0 8 -9 18 -20 21 -11 4 -18 11 -15 16 4 5 0 9 -7 9
-7 0 -19 9 -25 20 -12 18 -25 19 -180 20 -93 0 -285 1 -428 2 -143 0 -270 5
-281 9 -12 4 -25 5 -28 1 -10 -9 -136 -8 -136 2 0 5 -6 3 -13 -3 -8 -6 -17 -8
-20 -4 -6 5 -55 6 -147 1 -20 -1 -41 1 -47 5 -6 4 -14 3 -18 -3 -4 -7 -12 -7
-26 0 -13 8 -19 7 -19 0 0 -6 -4 -8 -10 -5 -18 11 -49 14 -55 5z m1103 -2168
c11 -12 25 -22 32 -22 7 0 11 -3 7 -6 -8 -8 16 -33 26 -27 4 2 7 1 7 -4 0 -4
11 -21 25 -37 13 -16 22 -33 19 -37 -3 -5 0 -9 7 -9 9 0 9 -3 0 -14 -7 -9 -8
-17 -2 -20 10 -7 10 -24 -2 -43 -4 -6 -4 -14 1 -17 8 -5 8 -107 0 -122 -3 -5
-2 -18 2 -29 5 -13 2 -27 -9 -39 -13 -16 -13 -18 -1 -11 13 8 13 6 1 -8 -7 -9
-17 -14 -22 -11 -5 3 -9 1 -9 -4 0 -5 -34 -44 -75 -87 -41 -42 -75 -73 -75
-69 0 5 -6 0 -14 -11 -11 -17 -24 -20 -82 -18 -229 5 -316 5 -321 0 -3 -3 -15
-2 -28 3 -14 5 -26 5 -34 -3 -8 -8 -11 -8 -11 2 0 11 -3 11 -15 1 -11 -9 -15
-9 -15 -1 0 7 -5 9 -11 5 -6 -3 -60 -7 -120 -7 l-108 0 -91 92 c-53 53 -89 98
-86 106 2 7 2 15 -1 18 -6 7 -10 187 -3 187 3 0 4 19 2 43 -3 34 1 47 22 70
14 15 26 30 26 32 0 3 2 5 5 5 10 1 61 56 57 63 -2 4 4 7 12 7 9 0 16 4 16 10
0 32 49 36 449 35 l399 0 20 -23z"/>
<path d="M555 4270 c-9 -14 -10 -738 -1 -747 4 -4 76 -8 160 -9 84 0 158 -4
164 -8 15 -9 17 -1962 2 -1986 -7 -11 -38 -14 -152 -15 l-143 0 0 -367 -1
-368 131 -1 c632 -4 1188 -4 1196 2 14 9 19 767 4 772 -5 3 -68 5 -139 5 -70
1 -130 3 -132 5 -12 12 -14 111 -14 832 l0 781 -23 24 c-12 14 -36 43 -52 65
-27 36 -64 81 -90 109 -29 30 -55 76 -55 95 0 29 18 34 119 34 49 0 89 5 93
11 10 14 10 738 0 751 -5 7 -145 11 -412 13 -223 1 -460 4 -527 6 -68 2 -125
0 -128 -4z"/>
</g>
</svg>
